<?xml version="1.0" encoding="utf-8"?>
<!-- Generator: Adobe Illustrator 16.0.2, SVG Export Plug-In . SVG Version: 6.00 Build 0)  -->
<!DOCTYPE svg PUBLIC "-//W3C//DTD SVG 1.1//EN" "http://www.w3.org/Graphics/SVG/1.1/DTD/svg11.dtd">
<svg version="1.1" id="Layer_1" xmlns="http://www.w3.org/2000/svg" xmlns:xlink="http://www.w3.org/1999/xlink" x="0px" y="0px"
	 width="90px" height="90px" viewBox="0 0 196 141" enable-background="new 0 0 196 141" xml:space="preserve">
<g>
	<g>
		<path fill="#AE71E8" d="M138.984,47.613c0.011-0.37,0.016-0.741,0.016-1.113C139,24.132,120.868,6,98.5,6
			C76.132,6,58,24.132,58,46.5c0,0.437,0.007,0.871,0.021,1.304C55.429,47.277,52.747,47,50,47c-22.091,0-40,17.909-40,40
			c0,21.596,17.115,39.195,38.521,39.973L48.5,127H50h96h1.5l-0.021-0.027C168.885,126.195,186,108.596,186,87
			c0-22.091-17.909-40-40-40C143.607,47,141.264,47.21,138.984,47.613z"/>
		<g id="XMLID_1_">
			<g>
				<path fill="@whiteFFF" d="M179.12,87.06c0,17.271-13.24,31.44-30.13,32.931L149,120h-0.16c-0.92,0.08-1.84,0.12-2.78,0.12
					c-0.939,0-1.869-0.04-2.79-0.12H50c-18.23-0.03-33-14.82-33-33.06C17,68.68,31.8,53.88,50.06,53.88
					c6.44,0,12.45,1.85,17.53,5.03C65.92,54.96,65,50.62,65,46.06C65,27.8,79.8,13,98.06,13c18.25,0,33.06,14.8,33.06,33.06
					c0,4.62-0.95,9.02-2.66,13.01c5.09-3.21,11.13-5.07,17.6-5.07C164.31,54,179.12,68.8,179.12,87.06z"/>
			</g>
			<g>
			</g>
		</g>
	</g>
	<g>
		<path fill="#AE71E8" d="M93.62,52.322L79.349,88.713H79l0.208,0.359L79,89.603h0.514L97.5,120.755l17.986-31.152H116l-0.208-0.53
			L116,88.713h-0.35L101.38,52.322L116,27H79L93.62,52.322z"/>
	</g>
</g>
</svg>
